<?xml version="1.0" standalone="no"?>
<!DOCTYPE svg PUBLIC "-//W3C//DTD SVG 20010904//EN"
 "http://www.w3.org/TR/2001/REC-SVG-20010904/DTD/svg10.dtd">
<svg version="1.0" xmlns="http://www.w3.org/2000/svg"
 width="500.000000pt" height="500.000000pt" viewBox="0 0 500.000000 500.000000"
 preserveAspectRatio="xMidYMid meet">

<g transform="translate(0.000000,500.000000) scale(0.100000,-0.100000)"
fill="#000000" stroke="none">
<path d="M2675 3717 c-23 -13 -52 -42 -69 -71 -26 -41 -30 -57 -29 -116 1 -83
27 -150 109 -280 32 -51 62 -99 66 -104 10 -14 26 8 91 129 71 131 91 192 91
287 1 91 -18 125 -81 147 -36 13 -43 12 -79 -5 -55 -27 -84 -75 -84 -138 0
-87 48 -139 113 -122 68 17 58 158 -11 155 -24 -2 -24 -2 -4 -6 12 -2 30 -16
39 -29 22 -35 3 -101 -31 -110 -77 -19 -126 108 -73 187 60 91 170 78 198 -23
24 -92 -23 -236 -139 -422 l-24 -38 -64 103 c-80 129 -104 192 -104 270 0 92
34 148 116 189 21 10 32 19 24 19 -8 1 -33 -9 -55 -22z"/>
<path d="M2355 3594 c-91 -19 -254 -99 -332 -164 -58 -47 -76 -70 -55 -70 4 0
24 16 43 36 55 58 182 136 257 159 35 10 30 -43 -8 -80 -36 -34 -60 -83 -60
-122 0 -16 11 -63 25 -103 14 -40 25 -94 25 -120 0 -58 -23 -81 -100 -104 -66
-19 -86 -32 -181 -115 -60 -53 -73 -60 -81 -47 -10 19 2 71 36 148 36 82 39
115 15 139 -16 16 -28 19 -52 14 -75 -15 -105 -69 -126 -228 -15 -109 -1 -229
38 -345 41 -118 84 -185 186 -287 76 -77 105 -98 185 -138 207 -102 435 -112
638 -28 207 85 369 262 438 476 19 58 28 110 31 191 11 233 -57 414 -219 578
-42 44 -80 78 -82 75 -3 -3 32 -43 77 -89 175 -181 246 -411 202 -656 l-18
-98 -105 -104 -105 -103 6 -55 6 -54 -57 -45 c-137 -108 -278 -156 -462 -158
-177 -1 -331 50 -457 153 l-58 46 3 56 c4 61 -10 98 -52 137 -33 31 -32 57 4
105 17 22 30 49 30 61 0 57 -72 92 -167 81 l-53 -6 0 108 c0 137 27 256 66
290 19 17 36 22 63 20 32 -3 36 -6 39 -34 2 -20 -9 -58 -28 -100 -34 -75 -46
-141 -31 -163 14 -22 47 -4 122 67 69 64 104 85 159 97 63 13 89 32 100 74 12
45 7 80 -26 178 -13 39 -24 79 -24 88 0 24 37 92 58 107 27 19 45 57 38 83 -5
20 -1 23 52 34 31 6 84 15 117 20 l60 9 -55 0 c-30 0 -86 -6 -125 -14z m-444
-875 c36 -12 69 -43 69 -64 0 -7 -13 -29 -30 -50 -38 -48 -40 -92 -4 -126 48
-44 68 -111 45 -147 -19 -30 -143 152 -179 263 -35 107 -37 123 -10 128 43 8
75 7 109 -4z m1276 -216 c-34 -67 -117 -175 -131 -170 -6 2 -12 20 -14 39 -3
32 2 40 45 75 26 21 63 55 82 75 19 21 37 36 39 34 2 -2 -8 -26 -21 -53z"/>
<path d="M2667 3058 l-34 -33 -33 23 c-63 42 -123 18 -101 -41 15 -38 69 -50
106 -23 17 12 23 11 44 -3 16 -10 56 -18 112 -21 75 -5 92 -10 123 -33 48 -37
70 -80 63 -128 -12 -91 -90 -140 -262 -165 -141 -20 -216 -54 -265 -120 -61
-80 -126 -109 -150 -65 -14 27 0 58 59 132 59 73 71 118 70 254 -1 50 4 103
10 119 14 36 7 46 -10 14 -9 -15 -14 -67 -15 -144 -1 -66 -5 -131 -9 -145 -4
-13 -31 -55 -61 -94 -58 -77 -71 -112 -54 -144 8 -16 20 -21 52 -21 39 0 46 5
107 71 36 39 83 80 104 90 20 11 83 27 140 35 142 23 166 29 218 62 103 66
106 192 6 266 -20 15 -49 21 -115 26 -48 3 -97 11 -110 19 -23 12 -23 13 -5
34 10 11 29 31 43 44 14 12 20 23 13 23 -6 0 -27 -15 -46 -32z m-93 -9 c33
-15 42 -40 20 -56 -34 -25 -84 -7 -84 31 0 38 19 45 64 25z"/>
<path d="M2556 2281 c-63 -59 -80 -70 -121 -76 -45 -7 -107 -46 -94 -60 4 -3
18 5 31 18 15 15 42 27 73 31 41 7 58 17 121 77 61 57 79 69 107 69 37 0 59
-19 77 -64 10 -27 13 -28 59 -24 27 3 56 1 65 -4 10 -6 16 -5 16 1 0 14 -34
21 -85 18 -32 -2 -40 2 -43 18 -8 40 -42 65 -89 65 -41 0 -50 -5 -117 -69z"/>
<path d="M1330 1895 c0 -22 4 -25 35 -25 l35 0 0 -115 0 -115 25 0 c24 0 24 0
27 113 l3 112 33 3 c26 3 32 7 32 28 0 24 -1 24 -95 24 -95 0 -95 0 -95 -25z"/>
<path d="M1570 1780 l0 -140 25 0 c24 0 25 3 25 55 0 46 3 55 18 55 12 0 27
-19 45 -55 24 -49 30 -55 57 -55 l30 0 -32 56 c-27 49 -29 58 -16 68 26 20 40
57 34 92 -10 48 -38 64 -118 64 l-68 0 0 -140z m130 69 c16 -28 -4 -49 -46
-49 -32 0 -34 2 -34 35 0 33 2 35 35 35 24 0 37 -6 45 -21z"/>
<path d="M1847 1783 l-55 -138 26 -3 c15 -2 29 2 34 12 12 22 103 22 112 1 6
-15 56 -22 56 -7 0 14 -99 255 -109 265 -5 5 -33 -53 -64 -130z m77 -15 c10
-39 7 -48 -19 -48 -29 0 -28 -2 -14 39 13 37 24 40 33 9z"/>
<path d="M2050 1912 c0 -13 99 -255 109 -265 6 -6 66 125 117 258 5 11 -2 15
-24 15 -27 0 -31 -5 -58 -75 -15 -41 -30 -72 -33 -69 -3 2 -16 35 -31 72 -22
58 -29 67 -53 70 -15 2 -27 -1 -27 -6z"/>
<path d="M2320 1780 l0 -140 70 0 c68 0 70 1 70 24 0 22 -5 25 -42 28 -40 3
-43 5 -43 33 0 27 3 30 38 33 32 3 37 7 37 28 0 21 -4 24 -40 24 -38 0 -40 2
-40 30 0 29 2 30 45 30 41 0 45 2 45 25 0 24 -2 25 -70 25 l-70 0 0 -140z"/>
<path d="M2520 1780 l0 -140 70 0 c68 0 70 1 70 24 0 22 -5 25 -42 28 l-43 3
-3 113 c-3 112 -3 112 -27 112 l-25 0 0 -140z"/>
<path d="M2830 1779 l0 -141 69 4 c76 4 105 21 114 64 2 13 -2 36 -10 51 -9
18 -10 30 -3 37 5 5 10 27 10 47 0 56 -34 79 -116 79 l-64 0 0 -141z m120 76
c20 -24 4 -45 -35 -45 -32 0 -35 2 -35 30 0 26 3 30 29 30 16 0 34 -7 41 -15z
m-4 -109 c26 -20 8 -50 -35 -54 -30 -3 -31 -2 -31 32 0 31 3 36 23 36 13 0 32
-6 43 -14z"/>
<path d="M3070 1780 l0 -140 25 0 25 0 0 140 0 140 -25 0 -25 0 0 -140z"/>
<path d="M3190 1780 l0 -140 25 0 c24 0 25 3 25 55 0 46 3 55 18 55 12 0 27
-19 45 -55 24 -49 30 -55 57 -55 l30 0 -32 56 c-27 49 -29 58 -16 68 26 20 40
57 34 92 -10 48 -38 64 -118 64 l-68 0 0 -140z m130 69 c16 -28 -4 -49 -46
-49 -32 0 -34 2 -34 35 0 33 2 35 35 35 24 0 37 -6 45 -21z"/>
<path d="M3430 1779 l0 -142 68 5 c106 8 152 50 152 140 0 89 -59 138 -165
138 l-55 0 0 -141z m141 62 c54 -55 24 -141 -51 -144 l-35 -2 -3 74 c-2 41 -1
80 2 88 9 23 56 15 87 -16z"/>
<path d="M1650 1431 c22 -6 26 -14 31 -66 l6 -60 1 62 c2 55 4 62 25 66 12 2
-3 4 -33 5 -37 0 -47 -2 -30 -7z"/>
<path d="M2358 1433 c20 -4 22 -11 24 -71 l1 -67 6 65 c5 58 8 65 31 71 17 5
7 7 -30 7 -30 -1 -45 -3 -32 -5z"/>
<path d="M2791 1432 c-2 -22 32 -132 40 -132 5 0 13 19 19 43 19 73 22 75 40
19 9 -29 20 -54 25 -55 8 -2 48 124 41 131 -2 2 -11 -22 -20 -52 -9 -31 -19
-56 -21 -56 -2 0 -12 25 -20 55 -9 30 -20 53 -25 50 -4 -3 -13 -28 -20 -56 -7
-27 -15 -47 -19 -44 -3 3 -13 30 -23 58 -9 29 -16 46 -17 39z"/>
<path d="M2223 1365 c0 -38 2 -53 4 -32 2 20 2 52 0 70 -2 17 -4 1 -4 -38z"/>
<path d="M2480 1365 c0 -38 2 -66 5 -63 7 7 9 118 1 125 -3 3 -6 -24 -6 -62z"/>
<path d="M3223 1365 c0 -38 2 -53 4 -32 2 20 2 52 0 70 -2 17 -4 1 -4 -38z"/>
<path d="M3339 1408 c-3 -91 -4 -93 -24 -93 -16 0 -20 7 -20 37 0 20 -3 34 -7
31 -5 -2 -8 -19 -8 -38 0 -35 19 -50 51 -40 16 5 19 17 19 66 0 32 -2 59 -5
59 -3 0 -5 -10 -6 -22z"/>
<path d="M1788 1393 c-14 -4 -18 -14 -16 -51 1 -44 2 -44 5 -10 3 24 12 43 26
53 21 15 18 17 -15 8z"/>
<path d="M1873 1393 c-7 -2 -13 -9 -13 -15 0 -7 5 -6 14 1 22 18 45 3 44 -31
-1 -32 -17 -44 -44 -34 -13 5 -14 9 -4 21 7 9 8 15 2 15 -16 0 -22 -28 -8 -39
7 -6 25 -10 40 -9 23 2 26 7 26 40 0 27 -6 40 -19 48 -11 5 -21 10 -23 9 -2 0
-9 -3 -15 -6z"/>
<path d="M2105 1384 c-37 -37 1 -99 47 -76 21 10 21 11 -8 5 -23 -3 -33 -1
-37 11 -5 13 1 16 28 16 28 0 35 4 35 20 0 10 -9 24 -19 30 -25 13 -27 13 -46
-6z m39 0 c28 -11 18 -34 -14 -34 -32 0 -37 9 -18 28 14 14 12 14 32 6z"/>
<path d="M2523 1388 c9 -7 18 -29 20 -48 4 -34 4 -34 5 6 2 30 -3 44 -14 48
-25 10 -29 7 -11 -6z"/>
<path d="M2615 1376 c-22 -33 -5 -76 29 -76 14 0 27 4 30 8 2 4 -7 8 -21 7
-14 0 -28 6 -30 13 -3 8 6 12 26 12 24 0 31 4 31 19 0 11 -4 22 -9 25 -5 4 -7
-3 -4 -14 4 -16 0 -20 -21 -20 -30 0 -35 24 -8 39 9 6 11 11 5 11 -7 0 -20
-11 -28 -24z"/>
<path d="M3050 1382 c31 -25 21 -75 -13 -70 -18 2 -22 9 -22 40 0 20 -3 34 -7
31 -5 -2 -8 -20 -8 -38 0 -29 4 -36 27 -41 44 -12 71 46 37 80 -8 9 -20 16
-26 16 -6 0 0 -8 12 -18z"/>
<path d="M1988 1345 c9 -25 20 -45 24 -45 9 0 38 67 37 84 0 6 -9 -7 -18 -29
l-18 -40 -16 38 c-22 52 -30 46 -9 -8z"/>
<path d="M3131 1343 c1 -53 6 -49 11 10 2 20 0 37 -4 37 -4 0 -8 -21 -7 -47z"/>
</g>
</svg>
